<svg xmlns="http://www.w3.org/2000/svg" viewBox="0 0 220 220" role="img" aria-labelledby="title desc">
  <title id="title">北京工业大学校徽</title>
  <desc id="desc">北京工业大学圆形校徽图形</desc>
  <defs>
    <path id="ring-top" d="M 110 28 A 70 70 0 1 1 109.9 28" />
  </defs>
  <g fill="none" fill-rule="evenodd">
    <circle cx="110" cy="110" r="92" fill="#1498BB"/>
    <circle cx="110" cy="110" r="82" stroke="#FFFFFF" stroke-width="4"/>
    <circle cx="110" cy="110" r="68" stroke="#FFFFFF" stroke-width="2.3" opacity="0.98"/>
    <text font-family="Georgia, 'Times New Roman', serif" font-size="13.5" letter-spacing="1.3" fill="#FFFFFF">
      <textPath href="#ring-top" startOffset="50%" text-anchor="middle">BEIJING UNIVERSITY OF TECHNOLOGY</textPath>
    </text>
    <path d="M81 77h57c16 0 25 8 25 21 0 8-4 14-12 18 11 4 17 11 17 21 0 17-12 28-33 28H81v-18h50c10 0 15-4 15-11 0-7-5-11-15-11H81v-17h49c8 0 12-3 12-9s-4-9-12-9H81V77z" fill="#FFFFFF"/>
    <text x="110" y="149" text-anchor="middle" font-family="'STXingkai', 'STKaiti', 'KaiTi', serif" font-size="18" fill="#FFFFFF">北京工业大学</text>
    <text x="110" y="171" text-anchor="middle" font-family="Georgia, 'Times New Roman', serif" font-size="12" letter-spacing="2" fill="#FFFFFF">1960</text>
  </g>
</svg>
